<?xml version="1.0" standalone="yes"?>
<svg xmlns="http://www.w3.org/2000/svg" width="512" height="512">
<path style="fill:#FFFFFF; stroke:none;" d="M168 63C182.76 82.2996 205.938 98.5157 224 114.83C230.47 120.674 243.449 128.484 246 137C277.042 135.11 306.78 148.737 320.68 178C325.018 187.134 323.678 202.512 329.319 210C337.586 220.974 350.811 229.967 361 239.17C378 254.525 394.28 272.815 413 286C421.279 271.815 425.944 255.02 429.199 239C432.902 220.777 433.031 202.284 429.611 184C407.987 68.3951 271.064 -0.0217285 168 63z"/>
<path style="fill:#FFFFFF; stroke:none;" d="M189 52L190 53L189 52z"/>
<path style="fill:#FFFFFF; stroke:none;" d="M182 55L183 56L182 55z"/>
<path style="fill:#FFFFFF; stroke:none;" d="M178 57L179 58L178 57M172 60L173 61L172 60z"/>
<path style="fill:#FFFFFF; stroke:none;" d="M170 61L171 62L170 61z"/>
<path style="fill:#FFFFFF; stroke:none;" d="M89 160C113.327 175.216 134.943 200.397 156 219.911C194.286 255.391 233.264 290.182 272 325.17C295.161 346.09 317.385 371.168 343 389C360.995 364.725 379.543 341.185 396.333 316C400.6 309.6 413.242 295.103 412.006 287C410.816 279.196 395.604 269.892 390 264.83C369.413 246.235 349.668 223.965 327 208C329.193 250.564 286.591 283.998 246 278.711C217.015 274.935 193.544 251.805 186.627 224C184.186 214.192 183.913 202.881 186.236 193C188.899 181.674 194.328 170.853 201.924 162.039C215.109 146.739 230.143 144.252 247 136C232.459 115.37 207.296 99.3997 189 82C184.294 77.5249 173.848 64.2579 167 64.3156C159.299 64.3805 147.59 76.2536 142 80.9197C118.883 100.217 95.3241 129.764 89 160z"/>
<path style="fill:#FFFFFF; stroke:none;" d="M162 66L163 67L162 66M160 67L161 68L160 67M157 69L158 70L157 69M146 77L147 78L146 77M140 82L141 83L140 82z"/>
<path style="fill:#FFFFFF; stroke:none;" d="M122 100L123 101L122 100z"/>
<path style="fill:#FFFFFF; stroke:none;" d="M117 106L118 107L117 106z"/>
<path style="fill:#FFFFFF; stroke:none;" d="M107 120L108 121L107 120M101 130L102 131L101 130z"/>
<path style="fill:#FFFFFF; stroke:none;" d="M249.667 136.333L250.333 136.667L249.667 136.333M252 136L253 137L252 136M254 136L255 137L254 136z"/>
<path style="fill:#FFFFFF; stroke:none;" d="M258.667 136.333L259.333 136.667L258.667 136.333z"/>
<path style="fill:#FFFFFF; stroke:none;" d="M239 138L240 139L239 138M235 139L236 140L235 139M232 140L233 141L232 140z"/>
<path style="fill:#FFFFFF; stroke:none;" d="M221 145L222 146L221 145M290 145L291 146L290 145z"/>
<path style="fill:#FFFFFF; stroke:none;" d="M292 146L293 147L292 146z"/>
<path style="fill:#FFFFFF; stroke:none;" d="M92 149L93 150L92 149M89 157L90 158L89 157z"/>
<path style="fill:#FFFFFF; stroke:none;" d="M306 157L307 158L306 157z"/>
<path style="fill:#FFFFFF; stroke:none;" d="M204 158L205 159L204 158z"/>
<path style="fill:#FFFFFF; stroke:none;" d="M88 160C84.8303 181.463 78.0178 200.763 80.1698 223C86.8011 291.526 136.522 350.26 178.92 401C193.297 418.207 208.145 435.145 224 451C230.486 457.486 237.33 466.974 246 470.517C260.523 476.452 271.332 467.668 281 458C295.199 443.801 308.879 429.204 322 414C326.064 409.291 342.419 394.592 340.658 388.015C339.605 384.08 333.822 380.684 331 378C321.231 368.71 311.004 359.866 301 350.83C263.904 317.324 226.665 283.888 190 249.911C167.525 229.084 144.203 209.115 122 188C112.981 179.423 100.189 163.17 88 160z"/>
<path style="fill:#FFFFFF; stroke:none;" d="M87 163L88 164L87 163M318 173L319 174L318 173M84 174L85 175L84 174z"/>
<path style="fill:#FFFFFF; stroke:none;" d="M191 177L192 178L191 177z"/>
<path style="fill:#FFFFFF; stroke:none;" d="M83 178L84 179L83 178z"/>
<path style="fill:#FFFFFF; stroke:none;" d="M321 179L322 180L321 179M323 184L324 185L323 184z"/>
<path style="fill:#FFFFFF; stroke:none;" d="M186 191L187 192L186 191z"/>
<path style="fill:#FFFFFF; stroke:none;" d="M326 195L327 196L326 195M327 202L328 203L327 202z"/>
<path style="fill:#FFFFFF; stroke:none;" d="M184.333 206.667L184.667 207.333L184.333 206.667z"/>
<path style="fill:#FFFFFF; stroke:none;" d="M327 211L328 212L327 211z"/>
<path style="fill:#FFFFFF; stroke:none;" d="M185 219L186 220L185 219M326 219L327 220L326 219z"/>
<path style="fill:#FFFFFF; stroke:none;" d="M81 231L82 232L81 231z"/>
<path style="fill:#FFFFFF; stroke:none;" d="M188 231L189 232L188 231z"/>
<path style="fill:#FFFFFF; stroke:none;" d="M323 231L324 232L323 231M321 236L322 237L321 236M191 238L192 239L191 238M319 240L320 241L319 240z"/>
<path style="fill:#FFFFFF; stroke:none;" d="M196 247L197 248L196 247z"/>
<path style="fill:#FFFFFF; stroke:none;" d="M315 247L316 248L315 247z"/>
<path style="fill:#FFFFFF; stroke:none;" d="M198 250L199 251L198 250M201 254L202 255L201 254M204 257L205 258L204 257M205 258L206 259L205 258z"/>
<path style="fill:#FFFFFF; stroke:none;" d="M88 260L89 261L88 260z"/>
<path style="fill:#FFFFFF; stroke:none;" d="M207 260L208 261L207 260M422 263L423 264L422 263z"/>
<path style="fill:#FFFFFF; stroke:none;" d="M212 264L213 265L212 264M299 264L300 265L299 264z"/>
<path style="fill:#FFFFFF; stroke:none;" d="M90 266L91 267L90 266z"/>
<path style="fill:#FFFFFF; stroke:none;" d="M221 270L222 271L221 270z"/>
<path style="fill:#FFFFFF; stroke:none;" d="M225 272L226 273L225 272M286 272L287 273L286 272z"/>
<path style="fill:#FFFFFF; stroke:none;" d="M93 274L94 275L93 274z"/>
<path style="fill:#FFFFFF; stroke:none;" d="M232 275L233 276L232 275M239 277L240 278L239 277M272 277L273 278L272 277M244 278L245 279L244 278M257 279L258 280L257 279z"/>
<path style="fill:#FFFFFF; stroke:none;" d="M415 281L416 282L415 281M414 283L415 284L414 283M413 285L414 286L413 285z"/>
<path style="fill:#FFFFFF; stroke:none;" d="M407 297L408 298L407 297M406 299L407 300L406 299z"/>
<path style="fill:#FFFFFF; stroke:none;" d="M111 309L112 310L111 309z"/>
<path style="fill:#FFFFFF; stroke:none;" d="M400 309L401 310L400 309z"/>
<path style="fill:#FFFFFF; stroke:none;" d="M398 312L399 313L398 312z"/>
<path style="fill:#FFFFFF; stroke:none;" d="M115 315L116 316L115 315z"/>
<path style="fill:#FFFFFF; stroke:none;" d="M396 315L397 316L396 315z"/>
<path style="fill:#FFFFFF; stroke:none;" d="M117 318L118 319L117 318z"/>
<path style="fill:#FFFFFF; stroke:none;" d="M394 318L395 319L394 318M392 321L393 322L392 321z"/>
<path style="fill:#FFFFFF; stroke:none;" d="M130 337L131 338L130 337z"/>
<path style="fill:#FFFFFF; stroke:none;" d="M381 337L382 338L381 337M376 344L377 345L376 344z"/>
<path style="fill:#FFFFFF; stroke:none;" d="M368 355L369 356L368 355z"/>
<path style="fill:#FFFFFF; stroke:none;" d="M152 367L153 368L152 367z"/>
<path style="fill:#FFFFFF; stroke:none;" d="M359 367L360 368L359 367z"/>
<path style="fill:#FFFFFF; stroke:none;" d="M348 381L349 382L348 381M344 386L345 387L344 386z"/>
<path style="fill:#FFFFFF; stroke:none;" d="M340 391L341 392L340 391M339 392L340 393L339 392M338 393L339 394L338 393M335 397L336 398L335 397M334 398L335 399L334 398z"/>
<path style="fill:#FFFFFF; stroke:none;" d="M186 409L187 410L186 409M325 409L326 410L325 409M211 437L212 438L211 437z"/>
</svg>
